static_grf.mot
version=1
nRows=17
nColumns 19
inDegrees=yes
endheader
time	1_ground_force_vx	1_ground_force_vy	1_ground_force_vz	1_ground_force_px	1_ground_force_py	1_ground_force_pz	1_ground_torque_x	1_ground_torque_y	1_ground_torque_z	2_ground_force_vx	2_ground_force_vy	2_ground_force_vz	2_ground_force_px	2_ground_force_py	2_ground_force_pz	2_ground_torque_x	2_ground_torque_y	2_ground_torque_z
            0.005000	           -0.831974	          290.126000	          -17.096848	           -0.247689	            0.006223	           -0.405933	           -0.003853	            1.343765	           -0.079187	           -0.815936	          254.242386	           19.631672	           -0.246576	            0.005559	           -0.687922	            0.003028	           -0.943397	           -0.072846
            0.005500	           -0.832771	          290.127376	          -17.417839	           -0.247689	            0.006223	           -0.406044	           -0.003790	            1.320533	           -0.079278	           -0.536269	          254.612550	           19.398226	           -0.246488	            0.005560	           -0.688284	            0.001963	           -0.931991	           -0.071006
            0.006000	           -0.924651	          289.947456	          -17.510097	           -0.247575	            0.006223	           -0.405895	           -0.004283	            1.342962	           -0.081102	           -0.441843	          254.428245	           19.538313	           -0.246749	            0.005560	           -0.688403	            0.001884	           -1.084712	           -0.083298
            0.006500	           -0.787042	          290.127582	          -17.463809	           -0.247605	            0.006223	           -0.405857	           -0.003724	            1.372902	           -0.082640	           -0.719660	          253.506800	           19.441291	           -0.246600	            0.005558	           -0.687870	            0.002872	           -1.011518	           -0.077573
            0.007000	           -0.924861	          289.226983	          -17.650756	           -0.247424	            0.006225	           -0.406291	           -0.004143	            1.295485	           -0.079060	           -0.391649	          253.507482	           19.581936	           -0.246679	            0.005558	           -0.687875	            0.001525	           -0.987214	           -0.076256
            0.007500	           -1.015816	          289.586120	          -17.327991	           -0.247553	            0.006225	           -0.406511	           -0.004585	            1.307036	           -0.078209	           -0.577055	          252.954384	           19.580045	           -0.246495	            0.005557	           -0.687480	            0.002182	           -0.956598	           -0.074046
            0.008000	           -0.786862	          289.766854	          -17.419499	           -0.247567	            0.006223	           -0.406038	           -0.003624	            1.334428	           -0.080220	           -0.486116	          253.692152	           19.347993	           -0.246083	            0.005560	           -0.687832	            0.001856	           -0.968661	           -0.073876
            0.008500	           -0.832363	          289.766255	          -17.281817	           -0.247569	            0.006223	           -0.406018	           -0.003914	            1.362602	           -0.081266	           -0.675345	          254.242559	           19.725468	           -0.246557	            0.005559	           -0.688145	            0.002663	           -1.002619	           -0.077788
            0.009000	           -1.016712	          290.128324	          -17.646664	           -0.247707	            0.006223	           -0.406017	           -0.004705	            1.342710	           -0.081669	           -0.814668	          253.874607	           19.489573	           -0.246686	            0.005557	           -0.687488	            0.002876	           -0.896220	           -0.068801
            0.009500	           -0.832396	          289.946490	          -17.281045	           -0.247629	            0.006223	           -0.405924	           -0.003862	            1.345291	           -0.080180	           -0.531555	          253.323002	           19.534411	           -0.246466	            0.005559	           -0.687915	            0.002078	           -0.990417	           -0.076374
            0.010000	           -0.832639	          289.406314	          -17.420931	           -0.247400	            0.006223	           -0.406032	           -0.003784	            1.315151	           -0.079166	           -0.111920	          253.877144	           19.489275	           -0.246353	            0.005559	           -0.687869	            0.000450	           -1.020789	           -0.078362
            0.010500	           -0.924211	          289.406099	          -17.374848	           -0.247871	            0.006224	           -0.406285	           -0.004181	            1.309208	           -0.078600	           -0.532925	          253.691648	           19.441869	           -0.246146	            0.005559	           -0.687683	            0.002105	           -1.002155	           -0.076801
            0.011000	           -0.831905	          288.503972	          -17.195516	           -0.247835	            0.006225	           -0.406404	           -0.003832	            1.328924	           -0.079207	           -0.577137	          252.955053	           19.392332	           -0.246488	            0.005557	           -0.687480	            0.002262	           -0.991592	           -0.076019
            0.011500	           -1.015849	          289.766416	          -17.327218	           -0.247804	            0.006224	           -0.406221	           -0.004567	            1.302734	           -0.077900	           -0.436526	          252.955059	           19.533057	           -0.246323	            0.005558	           -0.687631	            0.001794	           -1.039342	           -0.080257
            0.012000	           -0.787692	          289.948465	          -17.739717	           -0.247614	            0.006223	           -0.405991	           -0.003665	            1.349162	           -0.082545	           -0.484102	          253.139532	           19.392950	           -0.246548	            0.005557	           -0.687365	            0.001925	           -1.006445	           -0.077103
            0.012500	           -0.878644	          289.046167	          -17.514075	           -0.247931	            0.006226	           -0.406624	           -0.004178	            1.374458	           -0.083282	           -0.858839	          253.137677	           19.533893	           -0.246846	            0.005556	           -0.687433	            0.003383	           -0.996988	           -0.076935
            0.013000	           -0.694736	          289.225454	          -17.284478	           -0.247379	            0.006224	           -0.406234	           -0.003292	            1.370459	           -0.081900	           -0.676133	          254.427734	           19.444557	           -0.246345	            0.005561	           -0.688251	            0.002518	           -0.947386	           -0.072404
